<svg width="20" height="20" viewBox="0 0 20 20" fill="none" xmlns="http://www.w3.org/2000/svg">
<path fill-rule="evenodd" clip-rule="evenodd" d="M2.67092 8.28557C3.8901 6.56458 6.2599 4.16663 9.99996 4.16663C13.74 4.16663 16.1098 6.56458 17.329 8.28557C17.8007 8.95144 18.0366 9.28438 18.017 9.95315C17.9974 10.6219 17.7287 10.9576 17.1915 11.6289C15.8102 13.3548 13.2591 15.8333 9.99996 15.8333C6.74077 15.8333 4.18973 13.3548 2.80846 11.6289C2.27118 10.9576 2.00254 10.6219 1.98294 9.95315C1.96334 9.28438 2.1992 8.95144 2.67092 8.28557ZM9.99995 13.3333C11.8409 13.3333 13.3333 11.8409 13.3333 9.99996C13.3333 8.15901 11.8409 6.66663 9.99995 6.66663C8.15901 6.66663 6.66662 8.15901 6.66662 9.99996C6.66662 11.8409 8.15901 13.3333 9.99995 13.3333Z" fill="white"/>
</svg>
