<svg width="30" height="30" viewBox="0 0 30 30" fill="none" xmlns="http://www.w3.org/2000/svg">
<rect width="30" height="30" fill="white" fill-opacity="0.01" style="mix-blend-mode:multiply"/>
<path fill-rule="evenodd" clip-rule="evenodd" d="M15 1.87493C11.884 1.87535 8.86985 2.98434 6.49662 5.00355C4.1234 7.02275 2.54597 9.82042 2.04651 12.8961C1.54704 15.9718 2.15813 19.1249 3.77046 21.7913C5.38279 24.4577 7.89117 26.4635 10.8469 27.4499C11.5032 27.5718 11.7844 27.1687 11.7844 26.8218C11.7844 26.4749 11.7844 25.6874 11.7844 24.5905C8.13753 25.378 7.36878 22.8281 7.36878 22.8281C7.11233 22.0245 6.57258 21.3414 5.85003 20.9062C4.65941 20.0999 5.94378 20.1093 5.94378 20.1093C6.35966 20.168 6.75662 20.3211 7.10432 20.5567C7.45203 20.7923 7.7413 21.1042 7.95003 21.4687C8.31317 22.12 8.9201 22.6004 9.63738 22.8044C10.3547 23.0083 11.1236 22.919 11.775 22.5562C11.828 21.891 12.1212 21.2678 12.6 20.8031C9.69378 20.4655 6.62816 19.3406 6.62816 14.3156C6.6069 13.0105 7.09056 11.7476 7.97816 10.7906C7.5764 9.66011 7.62338 8.41865 8.10941 7.3218C8.10941 7.3218 9.20628 6.96555 11.7188 8.66243C13.867 8.07644 16.133 8.07644 18.2813 8.66243C20.7844 6.96555 21.8813 7.3218 21.8813 7.3218C22.3673 8.41865 22.4143 9.66011 22.0125 10.7906C22.9001 11.7476 23.3838 13.0105 23.3625 14.3156C23.3625 19.3593 20.2969 20.4655 17.3719 20.7937C17.6852 21.1113 17.9269 21.4923 18.0805 21.9112C18.2341 22.33 18.2962 22.7769 18.2625 23.2218C18.2625 24.9749 18.2625 26.3906 18.2625 26.8218C18.2625 27.253 18.4969 27.5812 19.2 27.4499C22.1596 26.4623 24.6706 24.4526 26.2827 21.7813C27.8948 19.11 28.5025 15.9517 27.9969 12.8729C27.4913 9.7941 25.9054 6.99609 23.5237 4.98065C21.1419 2.9652 18.1201 1.86415 15 1.87493Z" fill="#fff"/>
</svg>
